<?xml version="1.0" standalone="no"?>
<!DOCTYPE svg PUBLIC "-//W3C//DTD SVG 20010904//EN"
 "http://www.w3.org/TR/2001/REC-SVG-20010904/DTD/svg10.dtd">
<svg version="1.0" xmlns="http://www.w3.org/2000/svg"
 width="700.000000pt" height="700.000000pt" viewBox="0 0 700.000000 700.000000"
 preserveAspectRatio="xMidYMid meet">
<metadata>
Created by potrace 1.11, written by Peter Selinger 2001-2013
</metadata>
<g transform="translate(0.000000,700.000000) scale(0.100000,-0.100000)"
fill="#000000" stroke="none">
<path d="M3857 6084 c-1 -1 -60 -5 -132 -8 -71 -4 -139 -9 -150 -11 -11 -3
-47 -7 -80 -10 -99 -9 -146 -15 -230 -30 -44 -7 -98 -16 -119 -20 -21 -3 -48
-7 -60 -10 -12 -3 -32 -7 -46 -9 -66 -11 -268 -61 -375 -93 -494 -146 -864
-326 -1345 -652 -85 -58 -175 -118 -200 -135 -100 -66 -266 -216 -343 -311
-35 -44 -71 -104 -90 -152 -29 -73 7 -126 78 -116 56 8 114 41 357 206 310
209 446 292 668 406 376 193 794 318 1225 367 33 3 69 8 80 10 11 2 47 6 80 9
33 3 74 7 90 10 170 25 723 26 764 1 4 -3 25 -7 47 -10 279 -42 541 -183 682
-366 92 -121 136 -298 109 -445 -13 -76 -60 -184 -112 -261 -53 -78 -172 -200
-255 -260 -151 -111 -362 -204 -565 -250 -94 -22 -288 -25 -352 -6 -57 17
-122 68 -147 117 -30 58 -29 197 3 278 55 139 250 281 383 278 68 -1 108 -21
155 -78 122 -145 310 -145 456 1 102 102 137 241 88 348 -31 68 -110 149 -181
187 -164 88 -429 68 -665 -49 -357 -177 -676 -592 -883 -1150 -42 -112 -104
-309 -117 -370 -2 -8 -10 -44 -19 -80 -25 -106 -31 -176 -30 -340 1 -133 5
-170 27 -256 32 -126 57 -188 109 -278 191 -330 546 -544 1008 -610 99 -14
470 -16 525 -3 11 2 41 7 66 11 25 4 58 9 72 11 15 3 37 7 50 9 12 2 42 9 67
16 25 7 53 14 62 15 37 8 234 78 312 112 265 116 510 294 687 500 128 148 246
380 274 538 2 17 7 41 10 55 10 47 7 195 -4 258 -47 252 -176 440 -361 528
-77 37 -206 61 -309 59 l-86 -2 60 18 c33 10 69 23 80 28 11 5 43 17 70 26 28
10 101 43 163 73 327 160 534 372 598 613 35 134 20 325 -37 461 -46 110 -153
242 -274 341 -114 92 -344 215 -533 283 -89 33 -241 80 -285 89 -10 2 -26 6
-35 9 -9 3 -28 7 -42 10 -14 3 -50 10 -80 16 -30 6 -68 13 -85 16 -16 2 -37 7
-45 9 -8 2 -40 7 -70 10 -30 3 -66 8 -80 10 -25 3 -78 9 -220 21 -67 6 -457
13 -463 8z m883 -2418 c159 -33 306 -138 363 -258 136 -287 66 -595 -181 -793
-105 -85 -114 -91 -247 -155 -215 -104 -456 -159 -715 -165 -376 -8 -662 105
-754 299 -125 264 47 573 459 826 211 130 531 239 770 262 70 7 236 -2 305
-16z"/>
<path d="M2277 5014 c-37 -7 -100 -23 -140 -36 -39 -12 -74 -22 -77 -23 -52
-16 -209 -92 -291 -141 -105 -63 -292 -194 -319 -224 -3 -3 -25 -21 -50 -41
-90 -73 -192 -171 -375 -364 -261 -275 -317 -320 -411 -332 -103 -12 -109 38
-26 217 91 198 83 257 -36 248 -149 -11 -289 -141 -394 -366 -22 -48 -44 -96
-49 -107 -9 -23 -49 -151 -54 -178 -2 -10 -6 -26 -9 -35 -38 -123 -54 -458
-31 -617 15 -101 16 -106 39 -190 10 -33 18 -64 19 -70 19 -77 125 -298 192
-400 131 -200 322 -401 530 -558 192 -145 262 -250 205 -307 -18 -18 -32 -20
-132 -18 -95 2 -120 -1 -158 -18 -108 -49 -171 -200 -134 -324 46 -158 275
-245 534 -206 71 11 209 61 285 103 85 47 208 164 234 224 48 109 61 284 28
375 -52 141 -120 236 -326 450 -241 250 -332 365 -414 519 -40 77 -77 165 -77
187 0 11 -4 27 -9 36 -5 9 -12 41 -16 71 -4 30 -9 63 -11 75 -9 38 -5 220 6
294 18 131 74 257 174 392 161 220 441 448 724 589 115 58 179 81 248 88 48 5
53 3 69 -21 28 -42 6 -179 -61 -385 -32 -97 -71 -244 -79 -301 -4 -25 -8 -47
-10 -50 -1 -3 -6 -32 -10 -65 -4 -33 -9 -73 -11 -90 -9 -65 -10 -385 -2 -451
5 -38 11 -89 14 -114 6 -63 47 -230 79 -325 94 -279 283 -548 511 -726 298
-233 718 -395 1185 -458 264 -36 616 -36 894 0 229 29 693 149 739 191 6 4 16
8 23 8 18 0 220 94 325 152 95 53 232 140 303 193 187 141 423 368 556 535
276 346 440 691 502 1055 16 94 20 319 6 390 -5 28 -12 64 -15 80 -7 43 -43
142 -72 200 -83 167 -234 298 -369 323 -205 37 -448 -94 -543 -293 -81 -169
-17 -439 120 -510 44 -23 90 -14 139 24 76 61 132 64 186 11 44 -43 62 -105
59 -200 -11 -353 -224 -777 -559 -1116 -385 -390 -909 -650 -1450 -720 -27 -3
-58 -8 -68 -10 -37 -7 -217 -16 -322 -16 -169 -1 -355 16 -530 47 -44 8 -95
17 -114 20 -60 10 -185 47 -259 76 -198 79 -345 176 -486 323 -196 204 -311
445 -361 756 -14 85 -14 458 -1 525 4 17 13 66 22 110 36 186 97 353 228 627
93 195 133 293 165 410 68 249 30 403 -117 471 -40 19 -66 22 -172 23 -69 1
-155 -5 -193 -12z"/>
</g>
</svg>
