<svg xmlns="http://www.w3.org/2000/svg" width="92" height="68" viewBox="0 0 92 68">
  <metadata><?xpacket begin="﻿" id="W5M0MpCehiHzreSzNTczkc9d"?>
<x:xmpmeta xmlns:x="adobe:ns:meta/" x:xmptk="Adobe XMP Core 5.6-c142 79.160924, 2017/07/13-01:06:39        ">
   <rdf:RDF xmlns:rdf="http://www.w3.org/1999/02/22-rdf-syntax-ns#">
      <rdf:Description rdf:about=""/>
   </rdf:RDF>
</x:xmpmeta>
                                                                                                    
                                                                                                    
                                                                                                    
                                                                                                    
                                                                                                    
                                                                                                    
                                                                                                    
                                                                                                    
                                                                                                    
                                                                                                    
                                                                                                    
                                                                                                    
                                                                                                    
                                                                                                    
                                                                                                    
                                                                                                    
                                                                                                    
                                                                                                    
                                                                                                    
                                                                                                    
                           
<?xpacket end="w"?></metadata>
<defs>
    <style>
      .cls-1 {
        fill: #fff;
        fill-rule: evenodd;
      }
    </style>
  </defs>
  <path id="logo_mark" data-name="logo mark" class="cls-1" d="M127.7,2024.06s17.01-3.84,13.309-15.61c-2.3-7.3-16.949-13.47-35.959-10.83-15.986,2.23-24.537,9.1-28.885,11.96-4.485,2.96-7.588,7.11-5.785,7.85,1.314,0.54,3.5-1.53,7.848-4.37,9.723-6.34,16.585-8.21,28.276-9.06,15.349-1.12,20.529,6.8,17.92,12.74s-10.538,8.84-14.725,8.72-4.47-3.22-3.469-5.58c1.025-2.41,5.18-4.9,6.863-2.64,2.917,3.91,7.973.03,7.609-3.37-0.115-1.07-1.629-4.9-7.4-4.13-8.413,1.13-14.6,10.93-17.272,21.65-3.517,14.12,8.211,21.96,21.843,20.14,12.88-1.72,22.532-11.81,20.388-20.67C136.072,2021.83,127.7,2024.06,127.7,2024.06Zm-24.629,18.74c-4.293-9.63,21.466-20.5,25.326-9.88C133.31,2046.46,106.71,2050.97,103.069,2042.8Zm-32.8,15.09c-1.924.76-3.543,5.48,1.408,6.83,4.45,1.21,10.194-1.66,11.023-4.98,0.6-2.4.971-4.79-3.7-9.46-5.461-5.46-8.363-9.26-7.335-16.41,0.6-4.16,5.514-9.08,10.551-11.93s5.4-1.52,5.4-1.52,0.789,0.31-1.031,5.71-3.661,19.17,6.816,27.34c10.307,8.04,31.636,9.24,45.67-1.41,13.855-10.52,17.8-26.75,9.89-32.85-3.7-2.85-9.89.67-9.769,5.19,0.1,3.61,2.348,5.55,3.823,4.15,1.774-1.69,3.337-.06,3.337,2.01,0,10.91-15.209,29.39-40.492,23.93a17.805,17.805,0,0,1-14.3-17.56c-0.222-9.1,3.386-12.85,5.279-18.25,1.618-4.61,1.072-7.92-3.6-7.8-4.949.12-9.155,2.6-12.9,5.54-6.351,4.97-8.98,10.4-11.9,9.94-2.13-.32,3.082-5.98.21-6.14-5.13-.29-9.021,10.76-7.18,18.71,1.285,5.55,4.635,10.46,10.217,14.63,3.233,2.42,3.1,3.59,2.222,4.04C73.1,2058.01,72,2057.2,70.265,2057.89Z" transform="translate(-61 -1997)"/>
</svg>
