<svg xmlns="http://www.w3.org/2000/svg" width="25" height="32.97" viewBox="0 0 25 32.97">
  <metadata><?xpacket begin="﻿" id="W5M0MpCehiHzreSzNTczkc9d"?>
<x:xmpmeta xmlns:x="adobe:ns:meta/" x:xmptk="Adobe XMP Core 5.6-c142 79.160924, 2017/07/13-01:06:39        ">
   <rdf:RDF xmlns:rdf="http://www.w3.org/1999/02/22-rdf-syntax-ns#">
      <rdf:Description rdf:about=""/>
   </rdf:RDF>
</x:xmpmeta>
                                                                                                    
                                                                                                    
                                                                                                    
                                                                                                    
                                                                                                    
                                                                                                    
                                                                                                    
                                                                                                    
                                                                                                    
                                                                                                    
                                                                                                    
                                                                                                    
                                                                                                    
                                                                                                    
                                                                                                    
                                                                                                    
                                                                                                    
                                                                                                    
                                                                                                    
                                                                                                    
                           
<?xpacket end="w"?></metadata>
<defs>
    <style>
      .cls-1 {
        fill: #ff9f2e;
        fill-rule: evenodd;
      }
    </style>
  </defs>
  <path id="yelp" class="cls-1" d="M577.75,2004.49l6.53,3.13a1.463,1.463,0,0,1-.294,2.75l-7.049,1.73a1.494,1.494,0,0,1-1.851-1.27,12.451,12.451,0,0,1,.589-5.49A1.5,1.5,0,0,1,577.75,2004.49Zm2.615,13.22,4.86-5.31a1.5,1.5,0,0,1,2.609,1.04l-0.254,7.14a1.489,1.489,0,0,1-1.746,1.4,13.093,13.093,0,0,1-5.206-2.07A1.459,1.459,0,0,1,580.365,2017.71Zm11.524-7.07,6.909,2.21a1.471,1.471,0,0,1,.89,2.04,12.793,12.793,0,0,1-3.455,4.35,1.515,1.515,0,0,1-2.225-.35l-3.851-6.07A1.481,1.481,0,0,1,591.889,2010.64Zm7.026-4.33-6.984,1.97a1.479,1.479,0,0,1-1.654-2.24l4.064-5.92a1.507,1.507,0,0,1,2.229-.29,12.683,12.683,0,0,1,3.3,4.47A1.472,1.472,0,0,1,598.915,2006.31ZM582.6,1989.64a21.175,21.175,0,0,0-3.59,1.3,1.465,1.465,0,0,0-.648,2.07l6.826,11.62a1.5,1.5,0,0,0,2.793-.73v-13.43a1.484,1.484,0,0,0-1.611-1.47A21.616,21.616,0,0,0,582.6,1989.64Z" transform="translate(-575 -1989)"/>
</svg>
