<svg xmlns="http://www.w3.org/2000/svg" width="47" height="48" viewBox="0 0 47 48">
  <metadata><?xpacket begin="﻿" id="W5M0MpCehiHzreSzNTczkc9d"?>
<x:xmpmeta xmlns:x="adobe:ns:meta/" x:xmptk="Adobe XMP Core 5.6-c142 79.160924, 2017/07/13-01:06:39        ">
   <rdf:RDF xmlns:rdf="http://www.w3.org/1999/02/22-rdf-syntax-ns#">
      <rdf:Description rdf:about=""/>
   </rdf:RDF>
</x:xmpmeta>
                                                                                                    
                                                                                                    
                                                                                                    
                                                                                                    
                                                                                                    
                                                                                                    
                                                                                                    
                                                                                                    
                                                                                                    
                                                                                                    
                                                                                                    
                                                                                                    
                                                                                                    
                                                                                                    
                                                                                                    
                                                                                                    
                                                                                                    
                                                                                                    
                                                                                                    
                                                                                                    
                           
<?xpacket end="w"?></metadata>
<defs>
    <style>
      .cls-1 {
        fill: #4eadc2;
        fill-rule: evenodd;
      }
    </style>
  </defs>
  <path id="tw" class="cls-1" d="M114.5,303A24.005,24.005,0,1,1,91,327,23.754,23.754,0,0,1,114.5,303Zm13.491,23.782a6.629,6.629,0,0,1-3.058-.308,3.278,3.278,0,0,0,2.94-1.737,4.862,4.862,0,0,1-3.181.351c-0.047-.218-0.1-0.426-0.149-0.614-0.714-2.6-3.16-4.7-5.722-4.448,0.207-.083.416-0.161,0.628-0.231,0.28-.1,1.936-0.368,1.676-0.946-0.221-.511-2.243.383-2.624,0.5a2.008,2.008,0,0,0,1.423-1.083,4.024,4.024,0,0,0-2.11.992,1.429,1.429,0,0,0,.405-0.8c-2.054,1.3-3.254,3.928-4.225,6.477a10.1,10.1,0,0,0-2.045-1.634,53.658,53.658,0,0,0-6.925-3.025c-0.1,1.048.522,2.443,2.307,3.369a5.677,5.677,0,0,0-1.659.2c0.231,1.2.983,2.191,3.023,2.669a2.481,2.481,0,0,0-1.85.725,3.139,3.139,0,0,0,3.323,1.616c-2.073.887-.845,2.529,0.841,2.284a7.2,7.2,0,0,1-10.012.266c6.8,9.194,21.572,5.436,23.773-3.419A4.109,4.109,0,0,0,127.991,326.782Z" transform="translate(-91 -303)"/>
</svg>
