<svg xmlns="http://www.w3.org/2000/svg" width="16.969" height="17.031" viewBox="0 0 16.969 17.031">
  <metadata><?xpacket begin="﻿" id="W5M0MpCehiHzreSzNTczkc9d"?>
<x:xmpmeta xmlns:x="adobe:ns:meta/" x:xmptk="Adobe XMP Core 5.6-c142 79.160924, 2017/07/13-01:06:39        ">
   <rdf:RDF xmlns:rdf="http://www.w3.org/1999/02/22-rdf-syntax-ns#">
      <rdf:Description rdf:about=""/>
   </rdf:RDF>
</x:xmpmeta>
                                                                                                    
                                                                                                    
                                                                                                    
                                                                                                    
                                                                                                    
                                                                                                    
                                                                                                    
                                                                                                    
                                                                                                    
                                                                                                    
                                                                                                    
                                                                                                    
                                                                                                    
                                                                                                    
                                                                                                    
                                                                                                    
                                                                                                    
                                                                                                    
                                                                                                    
                                                                                                    
                           
<?xpacket end="w"?></metadata>
<defs>
    <style>
      .cls-1 {
        fill: #fff;
        fill-rule: evenodd;
      }
    </style>
  </defs>
  <path id="call_icon" data-name="call icon" class="cls-1" d="M842.315,841.04a8.33,8.33,0,0,1-3.2-2.088c-1.6-1.617-2.605-2.638-2.809-3.613s0.121-.9.59-1.2a1.161,1.161,0,0,0,.565-1.735c-0.451-1.142-1.787-4.118-1.787-4.118a1.755,1.755,0,0,0-2.391.4c-1.066,1.315-1.876,2.974-.7,6.049a16.033,16.033,0,0,0,4.625,6.562c1.925,1.778,6.062,4.106,8.209,3.629s3.322-1.574,3.531-3.2c0.207-1.606-.391-1.593-1.3-2.171s-2.149-1.406-3.019-1.089-0.761.939-1.05,1.672A1.1,1.1,0,0,1,842.315,841.04Z" transform="translate(-832 -827.969)"/>
</svg>
