<svg xmlns="http://www.w3.org/2000/svg" width="22" height="16" viewBox="0 0 22 16">
  <metadata><?xpacket begin="﻿" id="W5M0MpCehiHzreSzNTczkc9d"?>
<x:xmpmeta xmlns:x="adobe:ns:meta/" x:xmptk="Adobe XMP Core 5.6-c142 79.160924, 2017/07/13-01:06:39        ">
   <rdf:RDF xmlns:rdf="http://www.w3.org/1999/02/22-rdf-syntax-ns#">
      <rdf:Description rdf:about=""/>
   </rdf:RDF>
</x:xmpmeta>
                                                                                                    
                                                                                                    
                                                                                                    
                                                                                                    
                                                                                                    
                                                                                                    
                                                                                                    
                                                                                                    
                                                                                                    
                                                                                                    
                                                                                                    
                                                                                                    
                                                                                                    
                                                                                                    
                                                                                                    
                                                                                                    
                                                                                                    
                                                                                                    
                                                                                                    
                                                                                                    
                           
<?xpacket end="w"?></metadata>
<defs>
    <style>
      .cls-1 {
        fill: #7da444;
        fill-rule: evenodd;
      }
    </style>
  </defs>
  <path id="email_icon" data-name="email icon" class="cls-1" d="M142.573,343.244a3.465,3.465,0,0,0,.938,2.789l6.043,6.154a3.376,3.376,0,0,0,4.835,0l6.045-6.152a3.463,3.463,0,0,0,.928-2.846A4.8,4.8,0,0,1,163,346.8v6.4a4.758,4.758,0,0,1-4.715,4.8H145.714A4.757,4.757,0,0,1,141,353.2v-6.4A4.808,4.808,0,0,1,142.573,343.244Zm6.592,5.368-5.887-5.9a4.611,4.611,0,0,1,2.435-.709h12.573a4.609,4.609,0,0,1,2.456.721l-5.61,5.891A4.166,4.166,0,0,1,149.165,348.612Zm-5.887-5.9a4.706,4.706,0,0,0-.7.535C142.665,342.265,143.278,342.709,143.278,342.709Zm18.084,0.481a4.715,4.715,0,0,0-.62-0.469S161.264,342.3,161.362,343.19Z" transform="translate(-141 -342)"/>
</svg>
