<svg xmlns="http://www.w3.org/2000/svg" width="22" height="16" viewBox="0 0 22 16">
  <metadata><?xpacket begin="﻿" id="W5M0MpCehiHzreSzNTczkc9d"?>
<x:xmpmeta xmlns:x="adobe:ns:meta/" x:xmptk="Adobe XMP Core 5.6-c142 79.160924, 2017/07/13-01:06:39        ">
   <rdf:RDF xmlns:rdf="http://www.w3.org/1999/02/22-rdf-syntax-ns#">
      <rdf:Description rdf:about=""/>
   </rdf:RDF>
</x:xmpmeta>
                                                                                                    
                                                                                                    
                                                                                                    
                                                                                                    
                                                                                                    
                                                                                                    
                                                                                                    
                                                                                                    
                                                                                                    
                                                                                                    
                                                                                                    
                                                                                                    
                                                                                                    
                                                                                                    
                                                                                                    
                                                                                                    
                                                                                                    
                                                                                                    
                                                                                                    
                                                                                                    
                           
<?xpacket end="w"?></metadata>
<defs>
    <style>
      .cls-1 {
        fill: #7da444;
        fill-rule: evenodd;
      }
    </style>
  </defs>
  <path id="email_icon" data-name="email icon" class="cls-1" d="M17.573,495.244a3.463,3.463,0,0,0,.938,2.789l6.043,6.154a3.376,3.376,0,0,0,4.835,0l6.045-6.152a3.461,3.461,0,0,0,.928-2.846A4.8,4.8,0,0,1,38,498.8v6.4a4.758,4.758,0,0,1-4.714,4.8H20.714A4.758,4.758,0,0,1,16,505.2v-6.4A4.808,4.808,0,0,1,17.573,495.244Zm6.592,5.368-5.886-5.9A4.608,4.608,0,0,1,20.713,494H33.286a4.608,4.608,0,0,1,2.456.721l-5.611,5.891A4.166,4.166,0,0,1,24.165,500.612Zm-5.886-5.9a4.709,4.709,0,0,0-.705.535C17.665,494.265,18.278,494.709,18.278,494.709Zm18.084,0.481a4.71,4.71,0,0,0-.62-0.469S36.264,494.3,36.362,495.19Z" transform="translate(-16 -494)"/>
</svg>
