<?xml version="1.0" encoding="utf-8"?>
<!-- Generator: Adobe Illustrator 22.1.0, SVG Export Plug-In . SVG Version: 6.00 Build 0)  -->
<svg version="1.1" id="Layer_1" xmlns="http://www.w3.org/2000/svg" xmlns:xlink="http://www.w3.org/1999/xlink" x="0px" y="0px"
	 viewBox="0 0 379.2 379.4" style="enable-background:new 0 0 379.2 379.4;" xml:space="preserve">
<style type="text/css">
	.st0{fill:#FFFFFF;}
</style>
<g>
	<path class="st0" d="M262.5,165.3c0,0,59.9-13.5,46.9-55c-8.1-25.7-59.7-47.4-126.6-38.1c-56.3,7.8-86.4,32-101.7,42.1
		c-15.8,10.4-26.7,25-20.4,27.6c4.6,1.9,12.3-5.4,27.6-15.4c34.2-22.3,58.4-28.9,99.6-31.9c54.1-3.9,72.3,23.9,63.1,44.9
		c-9.2,20.9-37.1,31.1-51.9,30.7c-14.7-0.4-15.7-11.3-12.2-19.6c3.6-8.5,18.2-17.3,24.2-9.3c10.3,13.8,28.1,0.1,26.8-11.9
		c-0.4-3.8-5.7-17.3-26.1-14.5c-29.6,4-51.4,38.5-60.8,76.2c-12.4,49.7,28.9,77.4,76.9,70.9c45.4-6.1,79.4-41.6,71.8-72.8
		C292,157.4,262.5,165.3,262.5,165.3z M175.8,231.3c-15.1-33.9,75.6-72.2,89.2-34.8C282.3,244.1,188.6,260.1,175.8,231.3z"/>
	<path class="st0" d="M60.3,284.4c-6.8,2.7-12.5,19.3,5,24.1c15.7,4.3,35.9-5.8,38.8-17.5c2.1-8.5,3.4-16.9-13-33.3
		c-19.2-19.2-29.5-32.6-25.8-57.8c2.1-14.7,19.4-32,37.2-42c17.7-10,19-5.3,19-5.3s2.8,1.1-3.6,20.1c-6.4,19-12.9,67.5,24,96.3
		c36.3,28.3,111.4,32.5,160.8-5c48.8-37,62.7-94.2,34.8-115.7c-13-10-34.8,2.4-34.4,18.3c0.3,12.7,8.3,19.6,13.5,14.6
		c6.2-5.9,11.8-0.2,11.8,7.1c0,38.4-53.6,103.5-142.6,84.3c-28-6-49.6-28.7-50.4-61.8c-0.8-32.1,11.9-45.2,18.6-64.3
		c5.7-16.2,3.8-27.9-12.7-27.5c-17.4,0.4-32.2,9.2-45.4,19.5c-22.4,17.5-31.6,36.6-41.9,35c-7.5-1.2,10.9-21.1,0.7-21.6
		c-18.1-1-31.8,37.9-25.3,65.9c4.5,19.5,16.3,36.8,36,51.5c11.4,8.5,10.9,12.6,7.8,14.2C70.2,284.9,66.4,282,60.3,284.4z"/>
</g>
</svg>
