<?xml version="1.0" encoding="utf-8"?>
<!-- Generator: Adobe Illustrator 23.0.3, SVG Export Plug-In . SVG Version: 6.00 Build 0)  -->
<svg version="1.1" id="Layer_1" xmlns="http://www.w3.org/2000/svg" xmlns:xlink="http://www.w3.org/1999/xlink" x="0px" y="0px"
	 viewBox="0 0 260 260" style="enable-background:new 0 0 260 260;" xml:space="preserve">
<style type="text/css">
	.st0{fill:#6E764D;}
	.st1{fill:#7EA544;}
</style>
<g>
	<path class="st0" d="M188.5,110.4c0,0,48.1-10.9,37.6-44.1c-6.5-20.6-47.9-38.1-101.6-30.6C79.3,42,55.2,61.4,42.9,69.5
		c-12.7,8.3-21.4,20.1-16.3,22.2c3.7,1.5,9.9-4.3,22.2-12.3c27.5-17.9,46.9-23.2,79.9-25.6c43.4-3.2,58,19.2,50.6,36
		s-29.8,25-41.6,24.6c-11.8-0.3-12.6-9.1-9.8-15.8c2.9-6.8,14.6-13.8,19.4-7.5c8.2,11.1,22.5,0.1,21.5-9.5
		c-0.3-3-4.6-13.9-20.9-11.7c-23.8,3.2-41.3,30.9-48.8,61.2c-9.9,39.9,23.2,62.1,61.7,56.9c36.4-4.9,63.7-33.4,57.6-58.4
		C212.2,104.1,188.5,110.4,188.5,110.4z M118.9,163.4c-12.1-27.2,60.7-58,71.6-27.9C204.4,173.7,129.2,186.4,118.9,163.4z"/>
	<path class="st1" d="M26.2,206c-5.4,2.2-10,15.5,4,19.3c12.6,3.4,28.8-4.7,31.2-14.1c1.7-6.8,2.7-13.5-10.5-26.8
		c-15.4-15.4-23.6-26.2-20.7-46.4c1.7-11.8,15.6-25.7,29.8-33.7s15.3-4.3,15.3-4.3s2.2,0.9-2.9,16.1S62,170.4,91.6,193.5
		c29.1,22.7,89.4,26.1,129.1-4c39.2-29.7,50.3-75.6,28-92.8c-10.5-8.1-28,1.9-27.6,14.7c0.3,10.2,6.6,15.7,10.8,11.7
		c5-4.8,9.4-0.2,9.4,5.7c0,30.8-43,83.1-114.4,67.6c-22.4-4.8-39.8-23-40.4-49.6c-0.6-25.7,9.6-36.3,14.9-51.6
		c4.6-13,3-22.4-10.2-22.1c-14,0.4-25.9,7.4-36.5,15.7c-17.9,14.1-25.4,29.4-33.6,28.1c-6-0.9,8.7-16.9,0.6-17.4
		C7.1,98.7-3.9,129.9,1.3,152.4c3.6,15.7,13.1,29.6,28.9,41.4c9.1,6.8,8.7,10.1,6.3,11.4C34.2,206.3,31.1,204,26.2,206z"/>
</g>
</svg>
