<?xml version="1.0" encoding="utf-8"?>
<!-- Generator: Adobe Illustrator 21.0.0, SVG Export Plug-In . SVG Version: 6.00 Build 0)  -->
<svg version="1.1" id="Layer_1" xmlns="http://www.w3.org/2000/svg" xmlns:xlink="http://www.w3.org/1999/xlink" x="0px" y="0px"
	 viewBox="0 0 48 48" style="enable-background:new 0 0 48 48;" xml:space="preserve">
<style type="text/css">
	.st0{fill:#FFFFFF;}
</style>
<g>
	<circle class="st0" cx="24" cy="24" r="5.4"/>
	<path class="st0" d="M36.6,14.5c-0.3-0.8-0.6-1.3-1.2-1.9c-0.6-0.6-1.1-0.9-1.9-1.2c-0.6-0.2-1.4-0.5-3-0.6
		c-1.7-0.1-2.2-0.1-6.5-0.1c-4.3,0-4.8,0-6.5,0.1c-1.6,0.1-2.4,0.3-3,0.6c-0.8,0.3-1.3,0.6-1.9,1.2c-0.6,0.6-0.9,1.1-1.2,1.9
		c-0.2,0.6-0.5,1.4-0.6,3c-0.1,1.7-0.1,2.2-0.1,6.5s0,4.8,0.1,6.5c0.1,1.6,0.3,2.4,0.6,3c0.3,0.8,0.6,1.3,1.2,1.9
		c0.6,0.6,1.1,0.9,1.9,1.2c0.6,0.2,1.4,0.5,3,0.6c1.7,0.1,2.2,0.1,6.5,0.1s4.8,0,6.5-0.1c1.6-0.1,2.4-0.3,3-0.6
		c0.8-0.3,1.3-0.6,1.9-1.2c0.6-0.6,0.9-1.1,1.2-1.9c0.2-0.6,0.5-1.4,0.6-3c0.1-1.7,0.1-2.2,0.1-6.5s0-4.8-0.1-6.5
		C37,15.9,36.8,15.1,36.6,14.5z M24,32.3c-4.6,0-8.3-3.7-8.3-8.3s3.7-8.3,8.3-8.3c4.6,0,8.3,3.7,8.3,8.3S28.6,32.3,24,32.3z
		 M32.6,17.3c-1.1,0-1.9-0.9-1.9-1.9s0.9-1.9,1.9-1.9s1.9,0.9,1.9,1.9S33.7,17.3,32.6,17.3z"/>
	<path class="st0" d="M23.5,0C10.4,0.1-0.1,10.9,0,24c0,0.2,0,0.3,0,0.5C0.3,37.8,11.3,48.3,24.5,48C37.8,47.7,48.3,36.8,48,23.5
		S36.8-0.3,23.5,0z M40,30.6c-0.1,1.7-0.4,2.9-0.7,3.9c-0.4,1.1-1,2-1.9,2.9s-1.8,1.4-2.9,1.9c-1,0.4-2.2,0.7-3.9,0.7
		c-1.7,0.1-2.3,0.1-6.6,0.1s-4.9,0-6.6-0.1c-1.7-0.1-2.9-0.4-3.9-0.7c-1.1-0.4-2-1-2.9-1.9s-1.4-1.8-1.9-2.9c-0.4-1-0.7-2.2-0.7-3.9
		c-0.1-1.7-0.1-2.3-0.1-6.6s0-4.9,0.1-6.6c0.1-1.7,0.4-2.9,0.7-3.9c0.4-1.1,1-2,1.9-2.9s1.8-1.4,2.9-1.9c1-0.4,2.2-0.7,3.9-0.7
		c1.7-0.1,2.3-0.1,6.6-0.1s4.9,0,6.6,0.1c1.7,0.1,2.9,0.4,3.9,0.7c1.1,0.4,2,1,2.9,1.9s1.4,1.8,1.9,2.9c0.4,1,0.7,2.2,0.7,3.9
		c0.1,1.7,0.1,2.3,0.1,6.6S40.1,28.9,40,30.6z"/>
</g>
</svg>
