<?xml version="1.0" encoding="utf-8"?>
<!-- Generator: Adobe Illustrator 21.0.0, SVG Export Plug-In . SVG Version: 6.00 Build 0)  -->
<svg version="1.1" id="Layer_1" xmlns="http://www.w3.org/2000/svg" xmlns:xlink="http://www.w3.org/1999/xlink" x="0px" y="0px"
	 viewBox="0 0 48 48" style="enable-background:new 0 0 48 48;" xml:space="preserve">
<style type="text/css">
	.st0{fill:#FFFFFF;}
</style>
<path id="tw" class="st0" d="M23.5,0C36.8-0.3,47.7,10.2,48,23.5S37.8,47.7,24.5,48C11.3,48.3,0.3,37.8,0,24.5c0-0.2,0-0.3,0-0.5
	C-0.1,10.9,10.4,0.1,23.5,0z M37,23.8c-1,0.1-2.1,0-3.1-0.3c1.2,0,2.4-0.7,2.9-1.7c-1,0.5-2.1,0.6-3.2,0.4c0-0.2-0.1-0.4-0.1-0.6
	c-0.7-2.6-3.2-4.7-5.7-4.4c0.2-0.1,0.4-0.2,0.6-0.2c0.3-0.1,1.9-0.4,1.7-0.9c-0.2-0.5-2.2,0.4-2.6,0.5c0.6-0.1,1.1-0.5,1.4-1.1
	c-0.8,0.1-1.5,0.5-2.1,1c0.2-0.2,0.4-0.5,0.4-0.8c-2.1,1.3-3.3,3.9-4.2,6.5c-0.6-0.6-1.3-1.2-2-1.6c-2.2-1.2-4.5-2.2-6.9-3
	c-0.1,1,0.5,2.4,2.3,3.4c-0.6,0-1.1,0.1-1.7,0.2c0.2,1.2,1,2.2,3,2.7c-0.7,0-1.4,0.2-1.8,0.7c0.6,1.2,2,1.9,3.3,1.6
	c-2.1,0.9-0.8,2.5,0.8,2.3c-2.7,2.8-7.1,2.9-10,0.3c6.8,9.2,21.6,5.4,23.8-3.4C35,25.1,36.1,24.6,37,23.8z"/>
</svg>
