<?xml version="1.0" encoding="utf-8"?>
<!-- Generator: Adobe Illustrator 21.0.0, SVG Export Plug-In . SVG Version: 6.00 Build 0)  -->
<svg version="1.1" id="Layer_1" xmlns="http://www.w3.org/2000/svg" xmlns:xlink="http://www.w3.org/1999/xlink" x="0px" y="0px"
	 viewBox="0 0 48 48" style="enable-background:new 0 0 48 48;" xml:space="preserve">
<style type="text/css">
	.st0{fill:#FFFFFF;}
</style>
<path class="st0" d="M23.5,0C10.4,0.1-0.1,10.9,0,24c0,0.2,0,0.3,0,0.5C0.3,37.8,11.3,48.3,24.5,48C37.8,47.7,48.3,36.8,48,23.5
	S36.8-0.3,23.5,0z M14.9,7.2c1.9-1.5,5.4-1.9,6.9-1.6C23.3,5.9,24,6.7,24,7.7l0.1,12.8c0,1-0.5,1.9-1.2,2.1
	c-0.6,0.1-1.6-0.5-2.1-1.3l-6.7-11C13.6,9.4,12.5,9,14.9,7.2z M10.3,30.1c-0.2-1,0-6,0-6c0.3-1.4,1.4-2.3,2.3-1.9l7.2,2.8
	c0.9,0.4,1.6,1.3,1.5,2.1c-0.1,0.8-0.9,1.7-1.9,2.1l-6.8,2.4C11.7,31.9,10.5,31.1,10.3,30.1z M24.3,40.8c0,1-1.7,2-2.6,1.7l-4.9-1.7
	c-0.9-0.3-1.3-2.1-0.6-2.9l4.7-5.7c0.6-0.8,1.7-1.3,2.4-1.3c0.7,0.1,1.2,0.9,1.2,2L24.3,40.8z M37.4,34.1c-0.4,1.2-2.7,4.6-2.7,4.6
	c-0.5,0.9-2.5,1-2.9,0.1L28,32c-0.5-0.9-0.6-1.9-0.2-2.2c0.4-0.3,1.5-0.3,2.4-0.1l5.9,1.7C37.2,31.7,37.8,32.9,37.4,34.1z
	 M36.7,24.5l-6.6,1.2c-1,0.2-2.1-0.2-2.6-0.9c-0.4-0.7-0.3-1.9,0.4-2.7l3.8-4.6c0.6-0.8,1.8-0.9,2.8,0c1,0.9,2.9,3.4,3.1,4.3
	C37.9,22.7,37.9,24.2,36.7,24.5z"/>
</svg>
