<?xml version="1.0" encoding="utf-8"?>
<!-- Generator: Adobe Illustrator 21.0.0, SVG Export Plug-In . SVG Version: 6.00 Build 0)  -->
<svg version="1.1" id="Layer_1" xmlns="http://www.w3.org/2000/svg" xmlns:xlink="http://www.w3.org/1999/xlink" x="0px" y="0px"
	 viewBox="0 0 48 48" style="enable-background:new 0 0 48 48;" xml:space="preserve">
<style type="text/css">
	.st0{fill:#FFFFFF;}
</style>
<path class="st0" d="M24,0C10.8,0.3,0.3,10.6,0,23.5C-0.3,36.8,10.4,47.7,24,48c13.2-0.3,23.7-10.6,24-23.5C48.3,11.2,37.6,0.3,24,0
	z M16.5,37.2h-5.9V19.4h5.9V37.2z M16,16.1c-0.6,0.6-1.4,0.9-2.4,0.9h0c-1,0-1.8-0.3-2.4-0.9c-0.6-0.6-0.9-1.3-0.9-2.2
	c0-0.9,0.3-1.6,0.9-2.2c0.6-0.6,1.4-0.9,2.4-0.9c1,0,1.8,0.3,2.4,0.9c0.6,0.6,0.9,1.3,0.9,2.2C16.9,14.8,16.6,15.5,16,16.1z
	 M37.8,37.2h-5.9v-9.5c0-1.3-0.2-2.2-0.7-3c-0.5-0.7-1.2-1.1-2.3-1.1c-0.8,0-1.4,0.2-1.9,0.6c-0.5,0.4-0.9,0.9-1.1,1.5
	c-0.1,0.4-0.2,0.8-0.2,1.5v9.9h-5.9c0-4.8,0-8.6,0-11.6c0-3,0-4.7,0-5.3l0-0.9h5.9v2.5c0.2-0.4,0.5-0.7,0.7-0.9
	c0.3-0.3,0.6-0.6,1-0.9c0.4-0.3,0.9-0.6,1.6-0.8c0.6-0.2,1.3-0.3,2.1-0.3c2,0,3.7,0.7,4.9,2c1.2,1.4,1.9,3.3,1.9,6V37.2z"/>
</svg>
