<?xml version="1.0" encoding="utf-8"?>
<!-- Generator: Adobe Illustrator 23.0.3, SVG Export Plug-In . SVG Version: 6.00 Build 0)  -->
<svg version="1.1" id="Layer_1" xmlns="http://www.w3.org/2000/svg" xmlns:xlink="http://www.w3.org/1999/xlink" x="0px" y="0px"
	 viewBox="0 0 6.2 4.3" style="enable-background:new 0 0 6.2 4.3;" xml:space="preserve">
<style type="text/css">
	.st0{fill:#FFFFFF;}
</style>
<path class="st0" d="M6.2,2C6,2,5.7,2,5.5,1.9c0.4,0,0.6-0.2,0.7-0.4C6.1,1.6,5.7,1.7,5.5,1.6c0-0.1,0-0.1,0-0.1
	c-0.2-0.6-0.7-1.1-1.3-1c0,0,0.1,0,0.1-0.1c0.1,0,0.4-0.1,0.4-0.2C4.6,0,4.1,0.2,4,0.3c0.1,0,0.3-0.1,0.3-0.3C4.2,0,4,0.1,3.9,0.2
	C3.9,0.2,4,0.1,4,0C3.5,0.4,3.2,1,3,1.6C2.8,1.4,2.7,1.3,2.5,1.2C2.1,1,1.7,0.7,0.9,0.5c0,0.2,0.1,0.6,0.5,0.8c-0.1,0-0.3,0-0.4,0
	c0.1,0.3,0.2,0.5,0.7,0.6C1.6,1.9,1.5,2,1.4,2.1c0.1,0.2,0.3,0.4,0.8,0.4C1.6,2.7,1.9,3.1,2.3,3C1.6,3.7,0.6,3.6,0,3.1
	c1.6,2.1,5,1.3,5.5-0.8C5.9,2.3,6.1,2.1,6.2,2z"/>
</svg>
