<svg xmlns="http://www.w3.org/2000/svg" width="25" height="32.969" viewBox="0 0 25 32.969">
  <metadata><?xpacket begin="﻿" id="W5M0MpCehiHzreSzNTczkc9d"?>
<x:xmpmeta xmlns:x="adobe:ns:meta/" x:xmptk="Adobe XMP Core 5.6-c142 79.160924, 2017/07/13-01:06:39        ">
   <rdf:RDF xmlns:rdf="http://www.w3.org/1999/02/22-rdf-syntax-ns#">
      <rdf:Description rdf:about=""/>
   </rdf:RDF>
</x:xmpmeta>
                                                                                                    
                                                                                                    
                                                                                                    
                                                                                                    
                                                                                                    
                                                                                                    
                                                                                                    
                                                                                                    
                                                                                                    
                                                                                                    
                                                                                                    
                                                                                                    
                                                                                                    
                                                                                                    
                                                                                                    
                                                                                                    
                                                                                                    
                                                                                                    
                                                                                                    
                                                                                                    
                           
<?xpacket end="w"?></metadata>
<defs>
    <style>
      .cls-1 {
        fill: #d32323;
        fill-rule: evenodd;
      }
    </style>
  </defs>
  <path id="yelp" class="cls-1" d="M19.75,685.488l6.531,3.132a1.465,1.465,0,0,1-.294,2.752L18.937,693.1a1.5,1.5,0,0,1-1.851-1.267,12.48,12.48,0,0,1,.589-5.5A1.5,1.5,0,0,1,19.75,685.488Zm2.615,13.222,4.861-5.31a1.5,1.5,0,0,1,2.609,1.036L29.58,701.58a1.492,1.492,0,0,1-1.747,1.4,13.121,13.121,0,0,1-5.205-2.072A1.458,1.458,0,0,1,22.365,698.71Zm11.525-7.066,6.909,2.208a1.466,1.466,0,0,1,.89,2.034,12.821,12.821,0,0,1-3.455,4.354,1.513,1.513,0,0,1-2.225-.355l-3.851-6.061A1.479,1.479,0,0,1,33.889,691.644Zm7.026-4.335-6.984,1.969a1.478,1.478,0,0,1-1.654-2.238l4.063-5.925a1.512,1.512,0,0,1,2.23-.283,12.679,12.679,0,0,1,3.3,4.47A1.47,1.47,0,0,1,40.915,687.309ZM24.6,670.641a21.092,21.092,0,0,0-3.59,1.3,1.46,1.46,0,0,0-.648,2.064l6.826,11.628a1.5,1.5,0,0,0,2.793-.736V671.471A1.487,1.487,0,0,0,28.366,670,21.239,21.239,0,0,0,24.6,670.641Z" transform="translate(-17 -670)"/>
</svg>
