<svg xmlns="http://www.w3.org/2000/svg" width="25" height="32.969" viewBox="0 0 25 32.969">
  <metadata><?xpacket begin="﻿" id="W5M0MpCehiHzreSzNTczkc9d"?>
<x:xmpmeta xmlns:x="adobe:ns:meta/" x:xmptk="Adobe XMP Core 5.6-c142 79.160924, 2017/07/13-01:06:39        ">
   <rdf:RDF xmlns:rdf="http://www.w3.org/1999/02/22-rdf-syntax-ns#">
      <rdf:Description rdf:about=""/>
   </rdf:RDF>
</x:xmpmeta>
                                                                                                    
                                                                                                    
                                                                                                    
                                                                                                    
                                                                                                    
                                                                                                    
                                                                                                    
                                                                                                    
                                                                                                    
                                                                                                    
                                                                                                    
                                                                                                    
                                                                                                    
                                                                                                    
                                                                                                    
                                                                                                    
                                                                                                    
                                                                                                    
                                                                                                    
                                                                                                    
                           
<?xpacket end="w"?></metadata>
<defs>
    <style>
      .cls-1 {
        fill: #d32323;
        fill-rule: evenodd;
      }
    </style>
  </defs>
  <path id="yelp" class="cls-1" d="M577.75,594.488l6.53,3.132a1.465,1.465,0,0,1-.294,2.752l-7.049,1.729a1.5,1.5,0,0,1-1.851-1.267,12.474,12.474,0,0,1,.589-5.5A1.5,1.5,0,0,1,577.75,594.488Zm2.615,13.222,4.86-5.31a1.5,1.5,0,0,1,2.609,1.036l-0.254,7.143a1.491,1.491,0,0,1-1.746,1.4,13.125,13.125,0,0,1-5.206-2.072A1.458,1.458,0,0,1,580.365,607.71Zm11.524-7.066,6.909,2.207a1.467,1.467,0,0,1,.89,2.035,12.826,12.826,0,0,1-3.455,4.354,1.513,1.513,0,0,1-2.225-.355l-3.851-6.061A1.479,1.479,0,0,1,591.889,600.644Zm7.026-4.335-6.984,1.969a1.478,1.478,0,0,1-1.654-2.238l4.064-5.925a1.512,1.512,0,0,1,2.229-.284,12.678,12.678,0,0,1,3.3,4.471A1.469,1.469,0,0,1,598.915,596.309ZM582.6,579.641a21.092,21.092,0,0,0-3.59,1.3,1.46,1.46,0,0,0-.648,2.064l6.826,11.628a1.5,1.5,0,0,0,2.793-.736V580.471A1.487,1.487,0,0,0,586.366,579,21.243,21.243,0,0,0,582.6,579.641Z" transform="translate(-575 -579)"/>
</svg>
