<svg xmlns="http://www.w3.org/2000/svg" width="15.781" height="15.75" viewBox="0 0 15.781 15.75">
  <metadata><?xpacket begin="﻿" id="W5M0MpCehiHzreSzNTczkc9d"?>
<x:xmpmeta xmlns:x="adobe:ns:meta/" x:xmptk="Adobe XMP Core 5.6-c142 79.160924, 2017/07/13-01:06:39        ">
   <rdf:RDF xmlns:rdf="http://www.w3.org/1999/02/22-rdf-syntax-ns#">
      <rdf:Description rdf:about=""/>
   </rdf:RDF>
</x:xmpmeta>
                                                                                                    
                                                                                                    
                                                                                                    
                                                                                                    
                                                                                                    
                                                                                                    
                                                                                                    
                                                                                                    
                                                                                                    
                                                                                                    
                                                                                                    
                                                                                                    
                                                                                                    
                                                                                                    
                                                                                                    
                                                                                                    
                                                                                                    
                                                                                                    
                                                                                                    
                                                                                                    
                           
<?xpacket end="w"?></metadata>
<defs>
    <style>
      .cls-1 {
        fill: #7da444;
        fill-rule: evenodd;
      }
    </style>
  </defs>
  <path id="x" class="cls-1" d="M19.208,15.767L31.936,28.5a1.5,1.5,0,0,1,0,2.121l-0.022.022a1.5,1.5,0,0,1-2.121,0L17.064,17.911a1.5,1.5,0,0,1,0-2.121l0.022-.022A1.5,1.5,0,0,1,19.208,15.767ZM17.064,28.5L29.792,15.767a1.5,1.5,0,0,1,2.121,0l0.022,0.022a1.5,1.5,0,0,1,0,2.121L19.208,30.639a1.5,1.5,0,0,1-2.121,0l-0.022-.022A1.5,1.5,0,0,1,17.064,28.5Z" transform="translate(-16.625 -15.344)"/>
</svg>
